# xmcd
#
# Track frame offsets:
#	150
#	27422
#	46785
#	68462
#	89802
#	112085
#	130936
#	154075
#	171286
#	195294
#	223507
#	242965
#
# Disc length: 3535 seconds
#
# Revision: 3
# Processed by: cddbd v1.5.2PL0 Copyright (c) Steve Scherf et al.
# Submitted via: EZCDAudioConverter 8.0.2.1
#
DISCID=a50dcd0c
DTITLE=Ngô Quang Vinh - A Truly Acoustic. Lớn Lên Cùng Hà Nội
DYEAR=2014
DGENRE=Country
TTITLE0=Ngô Quang Vinh - Im lặng đêm Hà Nội
TTITLE1=Ngô Quang Vinh - Khúc mưa
TTITLE2=Ngô Quang Vinh - Mây xưa
TTITLE3=Ngô Quang Vinh - Một dại khờ một tôi
TTITLE4=Ngô Quang Vinh - Mơ về nơi xa lắm
TTITLE5=Ngô Quang Vinh - Nỗi nhớ mùa đông
TTITLE6=Ngô Quang Vinh - Tình khúc 24
TTITLE7=Ngô Quang Vinh - Nỗi nhớ
TTITLE8=Ngô Quang Vinh - Thương lắm tóc dài ơi
TTITLE9=Ngô Quang Vinh - Về lại phố xưa
TTITLE10=Soundtrack - Khúc mưa
TTITLE11=Soundtrack - Mơ về nơi xa lắm
EXTD=
EXTT0=
EXTT1=
EXTT2=
EXTT3=
EXTT4=
EXTT5=
EXTT6=
EXTT7=
EXTT8=
EXTT9=
EXTT10=
EXTT11=
PLAYORDER=
